<?xml version="1.0" encoding="UTF-8"?>
<svg id="Layer_1" data-name="Layer 1" xmlns="http://www.w3.org/2000/svg" xmlns:xlink="http://www.w3.org/1999/xlink" viewBox="0 0 337.42 100.6">
  <defs>
    <style>
      .cls-1, .cls-2 {
        fill: #00d058;
      }

      .cls-3 {
        fill: #fff;
      }

      .cls-4 {
        fill: url(#radial-gradient);
      }

      .cls-2 {
        opacity: .35;
      }
    </style>
    <radialGradient id="radial-gradient" cx="47.99" cy="50" fx="47.99" fy="50" r="49.01" gradientUnits="userSpaceOnUse">
      <stop offset="0" stop-color="#b2b2b2"/>
      <stop offset=".27" stop-color="#989898"/>
      <stop offset=".32" stop-color="#b9b9b9"/>
      <stop offset=".37" stop-color="#c7c7c7"/>
      <stop offset=".38" stop-color="silver"/>
      <stop offset=".51" stop-color="gray"/>
      <stop offset=".65" stop-color="#bdbdbd"/>
      <stop offset=".69" stop-color="#c7c7c7"/>
      <stop offset=".74" stop-color="#b8b8b8"/>
      <stop offset=".78" stop-color="#989898"/>
      <stop offset=".87" stop-color="#b2b2b2"/>
      <stop offset="1" stop-color="#b2b2b2"/>
    </radialGradient>
  </defs>
  <g>
    <rect class="cls-1" x="45.2" y="39.03" width="40.61" height="2.58" transform="translate(-11.4 38.72) rotate(-30.42)"/>
    <g>
      <rect class="cls-1" x="71.48" y="19.53" width="21.03" height="21.03" rx="1.72" ry="1.72" transform="translate(-3.93 45.62) rotate(-30.4)"/>
      <circle class="cls-2" cx="47.99" cy="50" r="20.49"/>
      <circle class="cls-1" cx="47.99" cy="50" r="5.87"/>
    </g>
    <path class="cls-4" d="m77.96,57.42c-3.55,14.39-17.18,24.81-32.97,23.31-14.36-1.36-26.09-12.87-27.67-27.21-2.06-18.63,12.47-34.4,30.68-34.4,2.8,0,5.51.38,8.09,1.08,1.09.3,2.16-.53,2.15-1.66l-.07-16.82c0-.95-.78-1.72-1.73-1.71l-17.57.12c-.95,0-1.72.78-1.71,1.73l.07,11.61c-6.05,1.78-11.48,5.02-15.87,9.31l-10.09-5.73c-.83-.47-1.88-.18-2.35.65L.23,32.98c-.47.83-.18,1.88.65,2.35l10.09,5.73c-.69,2.87-1.06,5.87-1.06,8.94,0,3.28.41,6.45,1.19,9.47l-10,5.86c-.82.48-1.1,1.54-.61,2.36l8.9,15.17c.48.82,1.54,1.09,2.36.61l10.02-5.88c4.45,4.23,9.92,7.4,16,9.09l.08,11.61c0,.95.78,1.72,1.73,1.71l17.58-.12c.95,0,1.72-.78,1.71-1.73l-.08-11.7c5.94-1.83,11.28-5.08,15.64-9.36l10.33,5.87c.83.47,1.88.18,2.35-.65l8.69-15.29c.47-.83.18-1.88-.65-2.35l-14.64-8.32c-.98-.56-2.24-.03-2.51,1.07Z"/>
  </g>
  <g>
    <path class="cls-3" d="m135.95,70.84c-1.13,0-2.29-.03-3.48-.09-1.19-.06-2.4-.16-3.63-.29-1.23-.14-2.39-.29-3.48-.47-1.09-.18-2.09-.38-2.98-.61v-6.84c1.17.12,2.49.21,3.98.29,1.48.08,3.02.14,4.62.18,1.6.04,3.12.06,4.56.06s2.76-.13,3.83-.38c1.07-.25,1.9-.7,2.48-1.34.58-.64.88-1.53.88-2.66v-1.58c0-1.29-.38-2.27-1.14-2.95-.76-.68-1.84-1.02-3.25-1.02h-3.68c-4.13,0-7.3-.91-9.5-2.72-2.2-1.81-3.3-4.9-3.3-9.27v-2.1c0-4.21,1.21-7.29,3.63-9.24,2.42-1.95,5.87-2.92,10.35-2.92,1.6,0,3.19.08,4.77.23,1.58.16,3.1.34,4.56.56,1.46.21,2.72.44,3.77.67v6.84c-1.79-.12-3.79-.23-5.99-.35-2.2-.12-4.24-.18-6.11-.18-1.33,0-2.51.13-3.54.38-1.03.25-1.82.73-2.37,1.43-.55.7-.82,1.7-.82,2.98v1.17c0,1.52.43,2.61,1.29,3.27.86.66,2.12.99,3.8.99h4.27c2.61,0,4.77.48,6.46,1.43,1.7.96,2.96,2.27,3.8,3.95.84,1.68,1.26,3.59,1.26,5.73v2.46c0,3.39-.63,5.98-1.9,7.78-1.27,1.79-3.02,3.01-5.26,3.65-2.24.64-4.86.96-7.86.96Z"/>
    <path class="cls-3" d="m177.23,70.78c-.94,0-2.01-.09-3.22-.26-1.21-.18-2.37-.58-3.48-1.2-1.11-.62-2.03-1.57-2.75-2.84-.72-1.27-1.08-3.01-1.08-5.23v-24.15c0-1.91.29-3.51.88-4.79.58-1.29,1.36-2.3,2.34-3.04.97-.74,2.05-1.27,3.22-1.58,1.17-.31,2.32-.47,3.45-.47,2.92,0,5.51.04,7.75.12,2.24.08,4.26.17,6.05.26,1.79.1,3.43.22,4.91.38v7.25h-16.14c-1.21,0-2.14.29-2.81.88-.66.58-.99,1.48-.99,2.69v6.26l17.13.47v6.84l-17.13.47v5.96c0,1.01.17,1.8.5,2.37.33.57.78.96,1.35,1.17.56.21,1.16.32,1.78.32h16.31v7.25c-1.72.2-3.62.35-5.7.47-2.09.12-4.19.21-6.32.29-2.12.08-4.14.12-6.05.12Z"/>
    <path class="cls-3" d="m210.97,70.49V27.22h18.3c2.92,0,5.36.52,7.31,1.55,1.95,1.03,3.5,2.51,4.65,4.44,1.15,1.93,1.96,4.22,2.43,6.87.47,2.65.7,5.57.7,8.77,0,4.87-.56,8.91-1.67,12.1-1.11,3.2-2.78,5.58-5,7.16-2.22,1.58-5.03,2.37-8.42,2.37h-18.3Zm8.65-7.78h8.77c1.79,0,3.22-.52,4.27-1.55,1.05-1.03,1.82-2.58,2.31-4.65.49-2.07.73-4.62.73-7.66,0-2.81-.16-5.12-.47-6.93-.31-1.81-.77-3.23-1.37-4.24-.61-1.01-1.37-1.71-2.28-2.1-.92-.39-1.98-.58-3.19-.58h-8.77v27.72Z"/>
    <path class="cls-3" d="m272.37,70.78c-2.73,0-4.96-.52-6.7-1.55-1.74-1.03-3.09-2.51-4.06-4.44-.98-1.93-1.66-4.24-2.05-6.93s-.58-5.69-.58-9,.22-6.57.67-9.3c.45-2.73,1.25-5.04,2.4-6.93,1.15-1.89,2.77-3.33,4.85-4.33,2.08-.99,4.77-1.49,8.04-1.49,1.99,0,3.81.08,5.47.23,1.66.16,3.23.38,4.71.67s2.96.63,4.44,1.02v6.67c-.82-.12-1.91-.23-3.27-.35-1.37-.12-2.89-.22-4.56-.32-1.68-.1-3.41-.15-5.2-.15-2.46,0-4.32.44-5.58,1.32-1.27.88-2.13,2.36-2.6,4.44-.47,2.09-.7,4.94-.7,8.57,0,2.81.13,5.11.38,6.9.25,1.79.67,3.21,1.26,4.24.58,1.03,1.35,1.75,2.31,2.16s2.13.61,3.54.61c1.6,0,3.13-.14,4.59-.41,1.46-.27,2.64-.54,3.54-.82v-8.42h-7.78v-6.84c.82-.12,1.79-.21,2.92-.29,1.13-.08,2.31-.15,3.54-.2s2.41-.09,3.54-.09c1.25,0,2.37,0,3.36.03.99.02,1.9.07,2.72.15v24.56h-6.49l-1.17-2.92c-1.13.66-2.73,1.37-4.79,2.11-2.07.74-4.31,1.11-6.72,1.11Z"/>
    <path class="cls-3" d="m318.91,70.78c-.94,0-2.01-.09-3.22-.26-1.21-.18-2.37-.58-3.48-1.2-1.11-.62-2.03-1.57-2.75-2.84-.72-1.27-1.08-3.01-1.08-5.23v-24.15c0-1.91.29-3.51.88-4.79.58-1.29,1.36-2.3,2.34-3.04.97-.74,2.05-1.27,3.22-1.58,1.17-.31,2.32-.47,3.45-.47,2.92,0,5.5.04,7.75.12,2.24.08,4.26.17,6.05.26,1.79.1,3.43.22,4.91.38v7.25h-16.14c-1.21,0-2.14.29-2.81.88-.66.58-.99,1.48-.99,2.69v6.26l17.13.47v6.84l-17.13.47v5.96c0,1.01.17,1.8.5,2.37.33.57.78.96,1.34,1.17.56.21,1.16.32,1.78.32h16.31v7.25c-1.72.2-3.62.35-5.7.47-2.09.12-4.19.21-6.32.29-2.12.08-4.14.12-6.05.12Z"/>
  </g>
</svg>