<?xml version="1.0" standalone="no"?>
<!DOCTYPE svg PUBLIC "-//W3C//DTD SVG 20010904//EN"
 "http://www.w3.org/TR/2001/REC-SVG-20010904/DTD/svg10.dtd">
<svg version="1.0" xmlns="http://www.w3.org/2000/svg"
 width="259.000000pt" height="194.000000pt" viewBox="0 0 259.000000 194.000000"
 preserveAspectRatio="xMidYMid meet">

<g transform="translate(0.000000,194.000000) scale(0.100000,-0.100000)"
fill="#000000" stroke="none">
<path d="M510 1310 c-25 -4 -63 -15 -84 -24 -46 -19 -126 -82 -126 -99 0 -7
61 -73 135 -147 l135 -135 137 137 137 137 -33 35 c-41 43 -114 82 -166 91
-76 12 -90 13 -135 5z m198 -75 c90 -49 91 -45 -33 -161 l-110 -104 -104 105
-105 104 20 22 c44 49 108 69 204 66 61 -3 86 -9 128 -32z"/>
<path d="M243 1093 c-26 -69 -24 -202 5 -266 32 -70 102 -140 175 -173 53 -25
74 -29 147 -29 73 0 93 4 144 29 72 35 126 88 163 158 25 48 28 63 28 153 0
75 -5 110 -18 139 l-18 40 -26 -27 c-24 -23 -25 -29 -15 -52 27 -59 0 -135
-59 -167 -41 -22 -75 -23 -113 -3 -28 15 -31 14 -61 -15 l-31 -30 -28 29 c-27
28 -27 28 -69 13 -50 -18 -84 -12 -126 24 -44 36 -58 89 -37 139 16 37 16 39
-6 62 -12 12 -25 23 -29 23 -4 0 -16 -21 -26 -47z"/>
<path d="M2112 1118 c-20 -20 -14 -48 13 -60 30 -14 55 3 55 37 0 33 -44 47
-68 23z"/>
<path d="M1175 1110 c-59 -24 -96 -114 -76 -187 24 -88 113 -129 216 -99 l55
17 0 69 0 70 -60 0 c-57 0 -60 -1 -60 -25 0 -20 5 -25 26 -25 21 0 25 -4 22
-22 -2 -19 -10 -24 -42 -26 -55 -5 -86 26 -86 85 0 77 69 118 129 77 22 -16
24 -15 48 8 l25 25 -35 22 c-36 22 -121 28 -162 11z"/>
<path d="M335 1031 c-15 -70 68 -137 125 -101 12 8 4 20 -45 70 -33 33 -63 60
-66 60 -4 0 -10 -13 -14 -29z"/>
<path d="M715 1000 c-49 -50 -57 -62 -45 -70 64 -40 152 41 124 114 -3 9 -9
16 -13 16 -4 0 -33 -27 -66 -60z"/>
<path d="M1511 1021 c-7 -5 -31 -6 -52 -4 l-39 6 0 -102 0 -101 30 0 30 0 0
63 c0 65 11 87 42 87 25 0 38 -31 38 -94 0 -56 0 -56 30 -56 l30 0 0 85 c0 72
-3 88 -20 105 -21 21 -65 26 -89 11z"/>
<path d="M1715 1018 c-36 -20 -55 -52 -55 -96 0 -54 22 -88 66 -102 105 -35
189 63 139 159 -22 44 -103 65 -150 39z m91 -73 c15 -23 15 -27 0 -50 -19 -29
-42 -32 -68 -8 -22 20 -23 46 -2 67 23 23 51 20 70 -9z"/>
<path d="M1936 1009 c-46 -36 -31 -87 35 -113 31 -13 39 -20 31 -28 -9 -9 -18
-8 -38 1 -24 11 -30 9 -48 -8 l-20 -20 37 -16 c82 -34 148 1 135 72 -1 10 -25
29 -51 42 -33 16 -45 27 -38 34 7 7 18 7 35 0 17 -8 27 -8 35 0 18 18 13 37
-15 47 -39 15 -69 12 -98 -11z"/>
<path d="M2242 1014 c-15 -10 -22 -25 -22 -48 0 -35 16 -54 64 -75 19 -8 26
-15 19 -22 -7 -7 -19 -6 -38 3 -24 11 -29 10 -41 -7 -17 -23 -4 -41 37 -50 69
-15 128 26 115 80 -5 18 -20 32 -51 45 -25 11 -45 24 -45 30 0 13 16 13 41 -1
17 -8 23 -7 35 8 19 25 18 28 -11 41 -36 16 -76 15 -103 -4z"/>
<path d="M2110 920 l0 -100 30 0 30 0 0 100 0 100 -30 0 -30 0 0 -100z"/>
</g>
</svg>
