<?xml version="1.0" encoding="utf-8"?>
<!-- Generator: Adobe Illustrator 27.5.0, SVG Export Plug-In . SVG Version: 6.00 Build 0)  -->
<svg version="1.1" id="Layer_1" xmlns="http://www.w3.org/2000/svg" xmlns:xlink="http://www.w3.org/1999/xlink" x="0px" y="0px"
	 width="338.8px" height="107.5px" viewBox="0 0 338.8 107.5" style="enable-background:new 0 0 338.8 107.5;" xml:space="preserve"
	>
<style type="text/css">
	.st0{opacity:0.35;fill:#04CE59;enable-background:new    ;}
	.st1{fill:#04CE59;}
	.st2{fill:url(#SVGID_1_);}
	.st3{fill:#FFFFFF;}
</style>
<g>
	<g>
		<g>
			<g>
				<g>
					<circle class="st0" cx="51.2" cy="53.7" r="21.9"/>
					<path class="st1" d="M101.9,34.9l-9.5-16.2c-0.5-0.9-1.6-1.2-2.5-0.7l-16.2,9.5c-0.9,0.5-1.2,1.6-0.7,2.5l4.3,7.4L56.2,49.9
						c-1.1-1.5-2.9-2.4-4.9-2.4c-3.5,0-6.3,2.8-6.3,6.3c0,3.5,2.8,6.3,6.3,6.3c3.5,0,6.3-2.8,6.3-6.3c0-0.5-0.1-0.9-0.1-1.3
						l21.5-12.6l3.8,6.4c0.5,0.9,1.6,1.2,2.5,0.7l16.2-9.5C102.2,36.9,102.5,35.7,101.9,34.9z"/>
				</g>
				
					<radialGradient id="SVGID_1_" cx="51.2422" cy="54.14" r="52.3123" gradientTransform="matrix(1 0 0 -1 0 107.89)" gradientUnits="userSpaceOnUse">
					<stop  offset="0" style="stop-color:#B0B0B0"/>
					<stop  offset="0.27" style="stop-color:#969696"/>
					<stop  offset="0.32" style="stop-color:#B7B7B7"/>
					<stop  offset="0.37" style="stop-color:#C5C5C5"/>
					<stop  offset="0.38" style="stop-color:#BEBEBE"/>
					<stop  offset="0.51" style="stop-color:#808080"/>
					<stop  offset="0.65" style="stop-color:#BBBBBB"/>
					<stop  offset="0.69" style="stop-color:#C5C5C5"/>
					<stop  offset="0.74" style="stop-color:#B6B6B6"/>
					<stop  offset="0.78" style="stop-color:#969696"/>
					<stop  offset="0.87" style="stop-color:#B0B0B0"/>
					<stop  offset="1" style="stop-color:#B0B0B0"/>
				</radialGradient>
				<path class="st2" d="M83.2,61.7C79.4,77,64.9,88.1,48,86.5c-15.3-1.5-27.8-13.7-29.5-29c-2.2-19.9,13.3-36.7,32.7-36.7
					c3,0,5.9,0.4,8.6,1.2c1.2,0.3,2.3-0.6,2.3-1.8l-0.1-18c0-1-0.8-1.8-1.8-1.8L41.5,0.5c-1,0-1.8,0.8-1.8,1.8l0.1,12.4
					c-6.5,1.9-12.3,5.4-16.9,9.9L12,18.6c-0.9-0.5-2-0.2-2.5,0.7L0.2,35.6c-0.5,0.9-0.2,2,0.7,2.5l10.8,6.1
					c-0.7,3.1-1.1,6.3-1.1,9.5c0,3.5,0.4,6.9,1.3,10.1L1.2,70.1c-0.9,0.5-1.2,1.6-0.7,2.5L10,88.8c0.5,0.9,1.6,1.2,2.5,0.7l10.7-6.3
					c4.7,4.5,10.6,7.9,17.1,9.7l0.1,12.4c0,1,0.8,1.8,1.8,1.8L61,107c1,0,1.8-0.8,1.8-1.8l-0.1-12.5c6.3-2,12-5.4,16.7-10l11,6.3
					c0.9,0.5,2,0.2,2.5-0.7l9.3-16.3c0.5-0.9,0.2-2-0.7-2.5l-15.6-8.9C84.9,59.9,83.5,60.5,83.2,61.7L83.2,61.7z"/>
			</g>
			<g>
				<path class="st3" d="M148,74.7c-1.1,0-2.2,0-3.3-0.1c-1.1-0.1-2.3-0.2-3.5-0.3c-1.2-0.1-2.3-0.3-3.3-0.4c-1-0.2-2-0.4-2.8-0.6
					v-6.5c1.1,0.1,2.4,0.2,3.8,0.3c1.4,0.1,2.9,0.1,4.4,0.2c1.5,0,3,0.1,4.3,0.1c1.4,0,2.6-0.1,3.6-0.4c1-0.2,1.8-0.7,2.4-1.3
					c0.6-0.6,0.8-1.5,0.8-2.5v-1.5c0-1.2-0.4-2.2-1.1-2.8s-1.7-1-3.1-1h-3.5c-3.9,0-6.9-0.9-9-2.6s-3.1-4.7-3.1-8.8v-2
					c0-4,1.2-6.9,3.5-8.8s5.6-2.8,9.8-2.8c1.5,0,3,0.1,4.5,0.2c1.5,0.2,2.9,0.3,4.3,0.5c1.4,0.2,2.6,0.4,3.6,0.6v6.5
					c-1.7-0.1-3.6-0.2-5.7-0.3c-2.1-0.1-4-0.2-5.8-0.2c-1.3,0-2.4,0.1-3.4,0.4s-1.7,0.7-2.3,1.4c-0.5,0.7-0.8,1.6-0.8,2.8V46
					c0,1.4,0.4,2.5,1.2,3.1c0.8,0.6,2,0.9,3.6,0.9h4.1c2.5,0,4.5,0.5,6.1,1.4c1.6,0.9,2.8,2.2,3.6,3.8s1.2,3.4,1.2,5.4v2.3
					c0,3.2-0.6,5.7-1.8,7.4c-1.2,1.7-2.9,2.9-5,3.5C153.3,74.4,150.8,74.7,148,74.7L148,74.7z"/>
				<path class="st3" d="M187.2,74.6c-0.9,0-1.9-0.1-3.1-0.2c-1.2-0.2-2.3-0.6-3.3-1.1c-1.1-0.6-1.9-1.5-2.6-2.7c-0.7-1.2-1-2.9-1-5
					v-23c0-1.8,0.3-3.3,0.8-4.6c0.6-1.2,1.3-2.2,2.2-2.9c0.9-0.7,1.9-1.2,3.1-1.5s2.2-0.4,3.3-0.4c2.8,0,5.2,0,7.4,0.1
					s4,0.2,5.8,0.2c1.7,0.1,3.3,0.2,4.7,0.4v6.9h-15.3c-1.2,0-2,0.3-2.7,0.8c-0.6,0.6-0.9,1.4-0.9,2.6v6l16.3,0.4v6.5l-16.3,0.4v5.7
					c0,1,0.2,1.7,0.5,2.3s0.7,0.9,1.3,1.1c0.5,0.2,1.1,0.3,1.7,0.3h15.5v6.9c-1.6,0.2-3.4,0.3-5.4,0.4c-2,0.1-4,0.2-6,0.3
					C191,74.6,189,74.6,187.2,74.6L187.2,74.6z"/>
				<path class="st3" d="M219.3,74.3V33.2h17.4c2.8,0,5.1,0.5,6.9,1.5s3.3,2.4,4.4,4.2s1.9,4,2.3,6.5c0.4,2.5,0.7,5.3,0.7,8.3
					c0,4.6-0.5,8.5-1.6,11.5c-1.1,3-2.6,5.3-4.8,6.8c-2.1,1.5-4.8,2.3-8,2.3L219.3,74.3L219.3,74.3z M227.5,66.9h8.3
					c1.7,0,3.1-0.5,4.1-1.5c1-1,1.7-2.5,2.2-4.4c0.5-2,0.7-4.4,0.7-7.3c0-2.7-0.2-4.9-0.4-6.6c-0.3-1.7-0.7-3.1-1.3-4
					c-0.6-1-1.3-1.6-2.2-2c-0.9-0.4-1.9-0.6-3-0.6h-8.3V66.9L227.5,66.9z"/>
				<path class="st3" d="M277.7,74.6c-2.6,0-4.7-0.5-6.4-1.5c-1.7-1-2.9-2.4-3.9-4.2c-0.9-1.8-1.6-4-1.9-6.6
					c-0.4-2.6-0.6-5.4-0.6-8.6s0.2-6.2,0.6-8.8c0.4-2.6,1.2-4.8,2.3-6.6s2.6-3.2,4.6-4.1c2-0.9,4.5-1.4,7.6-1.4
					c1.9,0,3.6,0.1,5.2,0.2c1.6,0.2,3.1,0.4,4.5,0.6c1.4,0.3,2.8,0.6,4.2,1V41c-0.8-0.1-1.8-0.2-3.1-0.3c-1.3-0.1-2.7-0.2-4.3-0.3
					c-1.6-0.1-3.2-0.1-4.9-0.1c-2.3,0-4.1,0.4-5.3,1.3c-1.2,0.8-2,2.2-2.5,4.2c-0.4,2-0.7,4.7-0.7,8.1c0,2.7,0.1,4.9,0.4,6.6
					c0.2,1.7,0.6,3.1,1.2,4c0.6,1,1.3,1.7,2.2,2.1c0.9,0.4,2,0.6,3.4,0.6c1.5,0,3-0.1,4.4-0.4c1.4-0.3,2.5-0.5,3.4-0.8v-8h-7.4v-6.5
					c0.8-0.1,1.7-0.2,2.8-0.3c1.1-0.1,2.2-0.1,3.4-0.2c1.2,0,2.3-0.1,3.4-0.1c1.2,0,2.3,0,3.2,0c0.9,0,1.8,0.1,2.6,0.1v23.3h-6.2
					l-1.1-2.8c-1.1,0.6-2.6,1.3-4.6,2C282.1,74.3,280,74.6,277.7,74.6L277.7,74.6z"/>
				<path class="st3" d="M320.8,74.6c-0.9,0-1.9-0.1-3.1-0.2c-1.2-0.2-2.3-0.6-3.3-1.1c-1.1-0.6-1.9-1.5-2.6-2.7c-0.7-1.2-1-2.9-1-5
					v-23c0-1.8,0.3-3.3,0.8-4.6c0.6-1.2,1.3-2.2,2.2-2.9c0.9-0.7,1.9-1.2,3.1-1.5c1.1-0.3,2.2-0.4,3.3-0.4c2.8,0,5.2,0,7.4,0.1
					c2.1,0.1,4,0.2,5.8,0.2c1.7,0.1,3.3,0.2,4.7,0.4v6.9h-15.3c-1.2,0-2,0.3-2.7,0.8c-0.6,0.6-0.9,1.4-0.9,2.6v6l16.3,0.4v6.5
					L319,57.6v5.7c0,1,0.2,1.7,0.5,2.3s0.7,0.9,1.3,1.1c0.5,0.2,1.1,0.3,1.7,0.3H338v6.9c-1.6,0.2-3.4,0.3-5.4,0.4
					c-2,0.1-4,0.2-6,0.3C324.5,74.6,322.6,74.6,320.8,74.6L320.8,74.6z"/>
			</g>
		</g>
	</g>
</g>
</svg>
